<svg width="259" height="58" viewBox="0 0 259 58" fill="none" xmlns="http://www.w3.org/2000/svg">
<path d="M54.8049 31.9632C55.1824 31.8259 55.9547 31.4226 55.9547 31.4226V33.7908C55.9547 35.8158 55.3883 37.2316 54.3244 38.021C53.1917 38.8104 52.0076 39.2051 50.6519 39.2051C49.811 39.2051 49.1332 38.982 48.5669 38.5273C48.0005 38.0124 47.7174 37.2831 47.7174 36.2105C47.7174 35.0264 48.1721 34.1769 49.1246 33.5506C49.6909 33.2159 50.6519 32.8641 51.8875 32.6496C52.634 32.5295 54.1013 32.212 54.8049 31.9632ZM52.3423 18.7578C48.3438 18.7578 45.6237 19.7703 44.0535 21.8639C43.041 23.1596 42.5348 24.8585 42.3632 27.0037H48.2322C48.3438 25.9912 48.687 25.3047 49.0817 24.8585C49.6995 24.0605 50.712 23.6659 52.1878 23.6659C53.432 23.6659 54.3844 23.8031 55.0623 24.2922C55.7058 24.7556 56.0748 25.3047 56.0748 26.2743C56.0748 26.9522 55.8174 27.5614 55.1138 27.9218C54.7877 28.0848 53.166 28.3336 53.166 28.3336L50.2057 28.8141C48.1207 29.0973 46.4303 29.6036 45.1347 30.3415C42.938 31.6371 41.8655 33.7308 41.9255 36.7254C41.8655 38.8104 42.5433 40.5094 43.8991 41.745C45.0832 42.766 46.6963 43.3838 48.6956 43.3838C51.9132 43.3838 54.4445 42.5343 56.2464 40.9555V43.3838H62.1154V26.0941C62.1154 23.2711 61.0944 21.2976 59.1809 20.2765C57.1388 19.2126 55.4055 18.7578 52.3423 18.7578Z" fill="#FF0A29"/>
<path d="M38.4667 12.7734H32.5977V43.3886H38.4667V12.7734Z" fill="#FF0A29"/>
<path d="M116.018 2.95773L101.859 17.1328L105.587 20.856L119.746 6.68093L116.018 2.95773Z" fill="#FF0A29"/>
<path d="M95.6646 0H90.4219V15.2046H95.6646V0Z" fill="#FF0A29"/>
<path d="M123.703 26.9805H108.189V32.2317H123.703V26.9805Z" fill="#FF0A29"/>
<path d="M92.3702 18.8203C85.6259 18.8203 80.1602 24.3547 80.1602 31.1934C80.1602 38.0234 85.6259 43.5664 92.3702 43.5664C99.1145 43.5664 104.58 38.0234 104.58 31.1934C104.58 24.3547 99.1145 18.8203 92.3702 18.8203ZM92.3702 37.6802C88.7836 37.6802 85.8748 34.7714 85.8748 31.1848C85.8748 27.5981 88.7836 24.6894 92.3702 24.6894C95.9569 24.6894 98.8656 27.5981 98.8656 31.1848C98.8656 34.7714 95.9569 37.6802 92.3702 37.6802Z" fill="#FF0A29"/>
<path d="M71.6281 22.9343C71.6281 22.9343 73.7389 18.8672 79.6423 18.8672V24.8564C79.6423 24.8564 78.6898 24.7191 77.7889 24.7362C76.6563 24.762 75.6438 25.0795 74.6313 25.7573C73.7217 26.3751 73.0267 27.0959 72.5977 28.014C72.1772 28.9149 71.9284 30.2192 71.9284 32.1412V43.3816H66.0508V19.8883H71.6367V22.9343H71.6281Z" fill="#FF0A29"/>
<path d="M23.5963 32.131C22.0948 35.3401 18.8685 37.5625 15.1274 37.5625C9.95337 37.5625 5.74893 33.3151 5.74893 28.081C5.74893 22.8384 9.94479 18.5996 15.1274 18.5996C18.8685 18.5996 22.0948 20.8219 23.5963 24.031H29.7142C27.9552 17.5442 22.1033 12.7734 15.136 12.7734C6.77858 12.7734 0 19.6293 0 28.0896C0 36.55 6.77858 43.4058 15.136 43.4058C22.1033 43.4058 27.9552 38.635 29.7142 32.1482H23.5963V32.131Z" fill="#FF0A29"/>
<path d="M137.06 11.2573V44H129.876V11.2573H137.06ZM136.207 31.6788L134.523 31.7215C134.523 30.1014 134.722 28.6092 135.12 27.2449C135.518 25.8806 136.086 24.694 136.825 23.685C137.564 22.676 138.452 21.8944 139.49 21.3401C140.527 20.7859 141.678 20.5088 142.943 20.5088C144.08 20.5088 145.117 20.6722 146.055 20.9991C147.008 21.3259 147.825 21.8517 148.507 22.5765C149.203 23.3013 149.736 24.2463 150.106 25.4117C150.489 26.577 150.681 27.9981 150.681 29.675V44H143.455V29.6324C143.455 28.6945 143.32 27.9697 143.05 27.4581C142.794 26.9323 142.424 26.5699 141.941 26.3709C141.458 26.1578 140.868 26.0512 140.172 26.0512C139.333 26.0512 138.651 26.1933 138.126 26.4775C137.6 26.7617 137.195 27.1597 136.91 27.6713C136.64 28.1687 136.456 28.7584 136.356 29.4406C136.257 30.1227 136.207 30.8688 136.207 31.6788ZM156.173 32.702V32.2544C156.173 30.5633 156.415 29.0071 156.898 27.586C157.381 26.1507 158.092 24.9072 159.03 23.8555C159.968 22.8039 161.126 21.9868 162.504 21.4041C163.883 20.8072 165.475 20.5088 167.279 20.5088C169.098 20.5088 170.697 20.8072 172.076 21.4041C173.468 21.9868 174.634 22.8039 175.572 23.8555C176.51 24.9072 177.22 26.1507 177.703 27.586C178.187 29.0071 178.428 30.5633 178.428 32.2544V32.702C178.428 34.379 178.187 35.9351 177.703 37.3704C177.22 38.7916 176.51 40.0351 175.572 41.1009C174.634 42.1525 173.475 42.9697 172.097 43.5523C170.718 44.135 169.127 44.4263 167.322 44.4263C165.517 44.4263 163.918 44.135 162.526 43.5523C161.133 42.9697 159.968 42.1525 159.03 41.1009C158.092 40.0351 157.381 38.7916 156.898 37.3704C156.415 35.9351 156.173 34.379 156.173 32.702ZM163.357 32.2544V32.702C163.357 33.5689 163.421 34.379 163.549 35.1322C163.677 35.8854 163.89 36.5462 164.188 37.1146C164.487 37.6689 164.892 38.1023 165.403 38.415C165.915 38.7276 166.555 38.8839 167.322 38.8839C168.075 38.8839 168.7 38.7276 169.198 38.415C169.709 38.1023 170.115 37.6689 170.413 37.1146C170.711 36.5462 170.925 35.8854 171.052 35.1322C171.18 34.379 171.244 33.5689 171.244 32.702V32.2544C171.244 31.4159 171.18 30.6272 171.052 29.8882C170.925 29.135 170.711 28.4742 170.413 27.9057C170.115 27.3231 169.709 26.8683 169.198 26.5415C168.686 26.2146 168.047 26.0512 167.279 26.0512C166.526 26.0512 165.894 26.2146 165.382 26.5415C164.885 26.8683 164.487 27.3231 164.188 27.9057C163.89 28.4742 163.677 29.135 163.549 29.8882C163.421 30.6272 163.357 31.4159 163.357 32.2544ZM198.522 20.9351H205.045V43.1047C205.045 45.2364 204.555 47.0412 203.574 48.5192C202.594 50.0114 201.222 51.1412 199.46 51.9086C197.712 52.6902 195.666 53.081 193.321 53.081C192.284 53.081 191.225 52.946 190.145 52.676C189.065 52.4202 188.056 52.0365 187.118 51.5249C186.18 51.0133 185.391 50.3809 184.752 49.6277L187.757 45.4069C188.34 46.0606 189.072 46.6149 189.953 47.0696C190.834 47.5386 191.871 47.7731 193.065 47.7731C194.103 47.7731 194.969 47.5883 195.666 47.2189C196.376 46.8494 196.916 46.3093 197.286 45.5988C197.655 44.9024 197.84 44.0568 197.84 43.0621V26.3922L198.522 20.9351ZM183.195 32.7447V32.297C183.195 30.549 183.409 28.9574 183.835 27.522C184.275 26.0725 184.901 24.829 185.711 23.7916C186.535 22.74 187.53 21.9299 188.695 21.3615C189.86 20.793 191.175 20.5088 192.639 20.5088C194.216 20.5088 195.509 20.8143 196.518 21.4254C197.542 22.0223 198.359 22.8607 198.97 23.9408C199.595 25.0209 200.078 26.2857 200.419 27.7352C200.775 29.1705 201.073 30.7196 201.315 32.3823V32.9152C201.073 34.4785 200.739 35.9564 200.313 37.3491C199.901 38.7276 199.361 39.9498 198.693 41.0156C198.025 42.0815 197.186 42.9199 196.177 43.531C195.183 44.1279 193.989 44.4263 192.596 44.4263C191.147 44.4263 189.839 44.135 188.674 43.5523C187.523 42.9697 186.535 42.1525 185.711 41.1009C184.901 40.0493 184.275 38.8129 183.835 37.3918C183.409 35.9706 183.195 34.4216 183.195 32.7447ZM190.379 32.297V32.7447C190.379 33.6116 190.457 34.4145 190.614 35.1535C190.784 35.8925 191.04 36.5462 191.381 37.1146C191.722 37.6689 192.141 38.1023 192.639 38.415C193.15 38.7276 193.747 38.8839 194.429 38.8839C195.467 38.8839 196.305 38.6637 196.945 38.2231C197.584 37.7826 198.046 37.1573 198.33 36.3472C198.615 35.5372 198.735 34.585 198.693 33.4908V31.8067C198.721 30.8688 198.657 30.0445 198.501 29.334C198.345 28.6092 198.096 28.0052 197.755 27.522C197.428 27.0389 196.987 26.6765 196.433 26.4349C195.893 26.1791 195.239 26.0512 194.472 26.0512C193.804 26.0512 193.214 26.2075 192.703 26.5201C192.191 26.8328 191.765 27.2733 191.424 27.8418C191.083 28.396 190.82 29.0569 190.635 29.8243C190.464 30.5775 190.379 31.4017 190.379 32.297ZM223.562 38.2018V28.6945C223.562 28.0408 223.47 27.4794 223.285 27.0104C223.1 26.5415 222.809 26.1791 222.411 25.9233C222.013 25.6533 221.48 25.5183 220.812 25.5183C220.272 25.5183 219.81 25.6106 219.426 25.7954C219.043 25.9801 218.751 26.2572 218.552 26.6267C218.353 26.9962 218.254 27.4652 218.254 28.0336H211.07C211.07 26.9678 211.305 25.9801 211.774 25.0706C212.257 24.1469 212.939 23.3439 213.82 22.6618C214.715 21.9796 215.781 21.4538 217.018 21.0843C218.268 20.7006 219.661 20.5088 221.196 20.5088C223.029 20.5088 224.663 20.8143 226.099 21.4254C227.548 22.0365 228.692 22.9531 229.531 24.1753C230.369 25.3832 230.788 26.9039 230.788 28.7371V38.1805C230.788 39.6869 230.874 40.8309 231.044 41.6125C231.215 42.3799 231.456 43.055 231.769 43.6376V44H224.564C224.223 43.2894 223.967 42.4225 223.796 41.3993C223.64 40.3619 223.562 39.2961 223.562 38.2018ZM224.436 29.9095L224.479 33.7466H221.302C220.634 33.7466 220.066 33.8389 219.597 34.0237C219.142 34.2084 218.773 34.4642 218.489 34.7911C218.218 35.1037 218.02 35.459 217.892 35.8569C217.778 36.2549 217.721 36.6741 217.721 37.1146C217.721 37.541 217.821 37.9247 218.02 38.2658C218.233 38.5926 218.517 38.8484 218.872 39.0332C219.227 39.2179 219.625 39.3103 220.066 39.3103C220.862 39.3103 221.537 39.1611 222.091 38.8626C222.66 38.55 223.093 38.1734 223.391 37.7328C223.69 37.2923 223.839 36.8802 223.839 36.4965L225.416 39.4382C225.132 40.0066 224.805 40.5822 224.436 41.1649C224.081 41.7475 223.633 42.2875 223.093 42.7849C222.567 43.2681 221.921 43.666 221.153 43.9787C220.386 44.2771 219.455 44.4263 218.361 44.4263C216.939 44.4263 215.632 44.135 214.438 43.5523C213.259 42.9697 212.314 42.1596 211.603 41.1222C210.893 40.0706 210.537 38.8626 210.537 37.4983C210.537 36.3046 210.75 35.2388 211.177 34.3008C211.617 33.3629 212.278 32.567 213.159 31.9133C214.04 31.2596 215.163 30.7622 216.527 30.4211C217.892 30.0801 219.498 29.9095 221.345 29.9095H224.436ZM244.423 26.648V44H237.24V20.9351H243.955L244.423 26.648ZM251.245 20.7646L251.117 27.4368C250.833 27.4084 250.449 27.3728 249.966 27.3302C249.483 27.2876 249.078 27.2662 248.751 27.2662C247.912 27.2662 247.188 27.3657 246.576 27.5647C245.98 27.7494 245.482 28.0336 245.084 28.4174C244.701 28.7868 244.416 29.2558 244.232 29.8243C244.061 30.3927 243.983 31.0535 243.997 31.8067L242.697 30.9541C242.697 29.405 242.846 27.9981 243.144 26.7333C243.457 25.4543 243.898 24.3529 244.466 23.4292C245.035 22.4913 245.724 21.7736 246.534 21.2762C247.344 20.7646 248.253 20.5088 249.262 20.5088C249.618 20.5088 249.966 20.5301 250.307 20.5727C250.662 20.6154 250.975 20.6793 251.245 20.7646Z" fill="black"/>
</svg>
