<svg width="82" height="40" viewBox="0 0 82 40" fill="none" xmlns="http://www.w3.org/2000/svg">
<path d="M37.2244 1.64001C37.1844 1.29001 37.0644 0.99 36.8644 0.75C36.6744 0.5 36.4144 0.310002 36.0844 0.190002C35.7844 0.0700024 35.4344 0.0100098 35.0344 0.0100098H31.1444C30.5344 0.0100098 30.0044 0.0800122 29.5444 0.200012C29.0744 0.330012 28.6444 0.550017 28.2644 0.830017C27.8944 1.11002 27.5444 1.47997 27.2444 1.90997C26.9544 2.31997 26.6644 2.81998 26.3844 3.34998L17.6244 18.54L15.1844 3.52002C15.1244 2.92002 15.0144 2.39001 14.8544 1.95001C14.6844 1.48001 14.4344 1.08999 14.1044 0.799988C13.7744 0.499988 13.3544 0.289983 12.8544 0.169983C12.3944 0.0599829 11.8344 0 11.1844 0H7.75438C7.38438 0 7.04438 0.0599829 6.71438 0.169983C6.38438 0.279983 6.09439 0.459993 5.83439 0.679993C5.58439 0.899993 5.36439 1.18 5.19439 1.5C5.02439 1.81 4.90439 2.16999 4.83439 2.54999L0.0443856 26.59C-0.0256144 26.83 -0.0156114 27.07 0.0943886 27.27C0.194389 27.48 0.394383 27.64 0.674383 27.75C0.894383 27.83 1.17439 27.89 1.55439 27.93C2.25439 28 3.52438 28 4.24438 27.93C4.62438 27.89 4.91439 27.83 5.15439 27.75C5.43439 27.65 5.64438 27.52 5.78438 27.35C5.91438 27.18 6.00439 27 6.04439 26.79L9.99438 7.07001L12.8344 26.75C12.8544 27.16 13.1544 27.49 13.7144 27.71C14.1644 27.89 14.8544 27.98 15.8244 27.98C16.7444 27.98 17.4444 27.92 17.9644 27.79C18.5744 27.64 18.9944 27.33 19.2044 26.88L30.2144 7.14001L26.3344 26.61C26.2844 26.84 26.3044 27.05 26.3944 27.24C26.4844 27.46 26.6844 27.63 26.9744 27.74C27.1944 27.82 27.4844 27.88 27.8544 27.92C28.2044 27.96 28.6644 27.98 29.2144 27.98C29.7344 27.98 30.1844 27.96 30.5544 27.92C30.9344 27.88 31.2444 27.82 31.4744 27.74C31.7644 27.64 31.9644 27.5 32.1044 27.32C32.2144 27.17 32.3044 27 32.3544 26.81C32.3544 26.8 32.3644 26.78 32.3644 26.77L37.1744 2.65002C37.2544 2.30002 37.2644 1.95001 37.2244 1.64001Z" fill="#EF3829"/>
<path d="M47.5047 25.5822L47.2847 26.7022C47.2447 26.9422 47.2647 27.1622 47.3447 27.3422C47.4447 27.5522 47.6346 27.7022 47.9046 27.8122C48.1046 27.8922 48.3547 27.9422 48.6647 27.9722C48.9547 28.0022 49.3246 28.0122 49.7646 28.0122C50.6646 28.0122 51.3147 27.9422 51.7447 27.8022C52.4147 27.5822 52.6247 27.1622 52.6847 26.8522L56.4247 8.18219C56.4747 7.95219 56.4447 7.72217 56.3447 7.53217C56.2446 7.33217 56.0547 7.18221 55.8047 7.08221C55.6047 7.00221 55.3646 6.95217 55.0446 6.91217C54.7446 6.87217 54.3847 6.85217 53.9447 6.85217C53.0447 6.85217 52.3947 6.92219 51.9647 7.06219C51.2947 7.28219 51.0847 7.7022 51.0247 8.0022L50.8647 8.77222C50.2947 8.14222 49.6547 7.64221 48.9647 7.26221C48.0147 6.75221 46.9147 6.49219 45.6947 6.49219C44.4047 6.49219 43.2247 6.72219 42.1947 7.18219C41.1747 7.64219 40.2547 8.26217 39.4647 9.03217C38.6847 9.79217 38.0047 10.6822 37.4347 11.6622C36.8847 12.6322 36.4247 13.6622 36.0647 14.7122C35.7147 15.7622 35.4447 16.8222 35.2747 17.8822C35.1047 18.9322 35.0146 19.9222 35.0146 20.8222C35.0146 21.7822 35.1147 22.7122 35.3047 23.5922C35.5047 24.4922 35.8447 25.3022 36.3147 26.0022C36.7947 26.7222 37.4447 27.3022 38.2447 27.7222C39.0447 28.1422 40.0447 28.3522 41.2247 28.3522C42.0747 28.3522 42.9147 28.2122 43.7147 27.9322C44.5047 27.6622 45.2347 27.3022 45.8847 26.8822C46.4947 26.5022 47.0447 26.0622 47.5047 25.5822ZM48.6847 16.4322C48.4947 17.3522 48.1946 18.2322 47.7946 19.0322C47.3846 19.8422 46.9147 20.5522 46.3847 21.1522C45.8647 21.7522 45.2947 22.2222 44.6947 22.5722C44.1247 22.9022 43.5647 23.0722 43.0247 23.0722C42.6747 23.0722 42.3947 23.0022 42.1847 22.8722C41.9647 22.7322 41.7947 22.5522 41.6647 22.3222C41.5247 22.0722 41.4247 21.7822 41.3647 21.4622C41.3047 21.1122 41.2747 20.7322 41.2747 20.3422C41.2747 19.7922 41.3146 19.1822 41.4046 18.5322C41.4946 17.8822 41.6247 17.2322 41.8147 16.5822C41.9947 15.9422 42.2247 15.3222 42.5047 14.7322C42.7747 14.1522 43.0947 13.6422 43.4447 13.2022C43.7847 12.7822 44.1846 12.4422 44.6246 12.1922C45.0446 11.9522 45.5147 11.8322 46.0247 11.8322C46.7147 11.8322 47.3347 12.0022 47.8547 12.3422C48.3547 12.6622 48.8247 13.1522 49.2547 13.7922L48.6847 16.4322Z" fill="#EF3829"/>
<path d="M81.6144 1.04779C81.6644 0.71779 81.4844 0.417812 81.1344 0.257812C80.9044 0.147813 80.5844 0.0877905 80.1444 0.0477905C79.7544 0.0177905 79.2344 0.0078125 78.5844 0.0078125C78.0044 0.0078125 77.5344 0.0177905 77.1944 0.0477905C76.8344 0.0777905 76.5444 0.127805 76.3044 0.187805C76.0244 0.257805 75.8244 0.357793 75.6744 0.487793C75.5544 0.587793 75.4444 0.717788 75.3344 0.857788L66.4044 13.2678L64.5044 7.82782C64.4544 7.64782 64.3744 7.48779 64.2944 7.35779C64.1744 7.17779 63.9644 7.05779 63.6944 6.98779C63.4944 6.93779 63.2244 6.90782 62.8744 6.88782C62.5444 6.86782 62.0844 6.85779 61.4944 6.85779C60.8344 6.85779 60.2844 6.87778 59.8844 6.90778C59.4244 6.94778 59.0944 7.02783 58.8444 7.14783C58.4544 7.34783 58.3344 7.62783 58.2944 7.83783C58.2544 8.06783 58.2844 8.33779 58.3944 8.66779L61.4244 17.0578L45.8544 37.7378C45.6644 38.0278 45.5644 38.2678 45.5344 38.4778C45.4844 38.8078 45.6444 39.0878 45.9744 39.2678C46.1944 39.3878 46.5044 39.4678 46.9244 39.5078C47.3044 39.5478 47.8044 39.5578 48.4044 39.5578C49.0744 39.5578 49.6244 39.5478 50.0344 39.5178C50.4644 39.4878 50.7944 39.4478 51.0644 39.3778C51.3844 39.3078 51.6144 39.2078 51.7644 39.0678C51.8944 38.9578 52.0144 38.8178 52.1144 38.6778L64.9644 21.1678L66.9444 26.9378C66.9844 27.1078 67.0444 27.2678 67.1344 27.4078C67.2544 27.5978 67.4544 27.7278 67.7344 27.8078C67.9444 27.8778 68.2244 27.9178 68.5944 27.9478C68.9444 27.9778 69.4044 27.9878 70.0044 27.9878C70.6444 27.9878 71.1844 27.9678 71.6044 27.9378C72.0644 27.8978 72.4144 27.8178 72.6744 27.7078C73.0944 27.5178 73.2444 27.2478 73.2944 27.0578C73.3544 26.8278 73.3444 26.5578 73.2444 26.2178L69.9744 17.1578L81.2344 1.81781C81.4644 1.51781 81.5844 1.26779 81.6144 1.04779Z" fill="#EF3829"/>
</svg>
