<svg width="149" height="27" viewBox="0 0 149 27" fill="none" xmlns="http://www.w3.org/2000/svg">
<path d="M23.9043 2.40421C23.8738 2.18423 23.7976 1.99081 23.6757 1.83151C23.5499 1.67222 23.3823 1.55085 23.1766 1.4712C22.9861 1.39534 22.7575 1.35742 22.5022 1.35742H20.0067C19.6181 1.35742 19.2714 1.39914 18.9781 1.48258C18.6771 1.56602 18.4028 1.70256 18.1551 1.8884C17.9151 2.07045 17.6941 2.30181 17.4998 2.57868C17.3131 2.84417 17.1265 3.15896 16.9512 3.50031L11.3202 13.2211L9.75433 3.6103C9.71623 3.22344 9.64384 2.88589 9.54478 2.60902C9.4343 2.30939 9.27428 2.06286 9.06093 1.87323C8.84757 1.68359 8.57707 1.54705 8.25704 1.4712C7.95987 1.39914 7.60174 1.36121 7.18646 1.36121H4.98435C4.74813 1.36121 4.52335 1.39914 4.31762 1.4712C4.10807 1.54326 3.91758 1.65326 3.75375 1.79738C3.58993 1.93771 3.45277 2.11596 3.34228 2.32456C3.23561 2.52558 3.15941 2.74935 3.10988 2.99967L0.02768 18.383C-0.0180386 18.5385 -0.00660896 18.6902 0.0581592 18.8229C0.126737 18.9557 0.252464 19.0581 0.431528 19.1301C0.572494 19.1832 0.755369 19.2212 0.999202 19.2477C1.45258 19.297 2.26409 19.297 2.72508 19.2477C2.96891 19.225 3.15941 19.187 3.30799 19.1339C3.48706 19.0732 3.62041 18.986 3.71184 18.876C3.79566 18.7698 3.85281 18.6485 3.87948 18.5195L6.41686 5.9011L8.2418 18.493C8.25704 18.7585 8.44753 18.9671 8.80947 19.1112C9.10284 19.2288 9.54478 19.2856 10.1658 19.2856C10.7563 19.2856 11.2059 19.2477 11.5374 19.1643C11.926 19.0695 12.1965 18.8684 12.3336 18.584L19.4124 5.958L16.9169 18.4133C16.8864 18.5574 16.9017 18.694 16.955 18.8153C17.016 18.9557 17.1417 19.0619 17.3284 19.1339C17.4694 19.187 17.6522 19.225 17.8961 19.2515C18.1208 19.2743 18.418 19.2856 18.7685 19.2856C19.1038 19.2856 19.3933 19.2743 19.6296 19.2515C19.8772 19.2288 20.0715 19.1908 20.2201 19.1377C20.403 19.0733 20.5363 18.986 20.6239 18.8722C20.6963 18.7736 20.7535 18.6636 20.7878 18.5461C20.7916 18.5385 20.7916 18.5309 20.7954 18.5233L23.8852 3.0907C23.9195 2.829 23.9271 2.60522 23.9043 2.40421Z" fill="#EE122C"/>
<path d="M30.5068 17.7192L30.3658 18.4323C30.3392 18.5878 30.3506 18.7243 30.4077 18.8419C30.4687 18.9746 30.5906 19.077 30.7659 19.1415C30.8954 19.1908 31.0554 19.225 31.2573 19.2439C31.4402 19.2629 31.6764 19.2743 31.9622 19.2743C32.5413 19.2743 32.9566 19.2287 33.2347 19.1415C33.6652 19.0012 33.8023 18.7357 33.8404 18.5347L36.2445 6.58759C36.275 6.43967 36.2559 6.29555 36.1911 6.17418C36.1264 6.04902 36.0083 5.9542 35.8406 5.88973C35.7149 5.84042 35.5549 5.80629 35.353 5.77974C35.1625 5.75699 34.9301 5.74561 34.6481 5.74561C34.069 5.74561 33.6538 5.79112 33.3756 5.87835C32.9451 6.01868 32.808 6.28796 32.7699 6.48139L32.6708 6.97445C32.3051 6.57242 31.8974 6.25004 31.4478 6.0111C30.8383 5.68492 30.1296 5.51805 29.3448 5.51805C28.5142 5.51805 27.7561 5.66596 27.0931 5.96179C26.4378 6.25383 25.8435 6.65206 25.3368 7.14512C24.8339 7.63438 24.3957 8.1995 24.0338 8.82909C23.6795 9.4511 23.3823 10.1072 23.1537 10.7786C22.9251 11.4499 22.7575 12.1326 22.647 12.8077C22.5365 13.4828 22.4832 14.1162 22.4832 14.6889C22.4832 15.3033 22.5479 15.8987 22.6698 16.4601C22.7956 17.0366 23.0165 17.5524 23.3213 18.0037C23.6299 18.4626 24.049 18.8305 24.5596 19.0998C25.0701 19.3691 25.7139 19.5056 26.4721 19.5056C27.0207 19.5056 27.5579 19.4146 28.0723 19.2363C28.579 19.0619 29.0476 18.8343 29.4667 18.5688C29.8591 18.3109 30.2096 18.0265 30.5068 17.7192ZM31.2688 11.8671C31.1469 12.4549 30.9564 13.0163 30.6973 13.5283C30.4344 14.0441 30.1296 14.503 29.7905 14.8899C29.4553 15.2691 29.0895 15.5764 28.7047 15.7963C28.339 16.0087 27.977 16.1149 27.6341 16.1149C27.4094 16.1149 27.2265 16.0732 27.0931 15.9898C26.9522 15.9025 26.8417 15.7887 26.7579 15.637C26.6664 15.4777 26.6017 15.2919 26.5674 15.0871C26.5293 14.8595 26.5102 14.6206 26.5102 14.3703C26.5102 14.0175 26.5407 13.6269 26.594 13.2097C26.6512 12.7963 26.7388 12.3753 26.8531 11.9657C26.9712 11.5561 27.116 11.1616 27.2951 10.7824C27.4665 10.4145 27.6722 10.0845 27.897 9.80003C28.118 9.53074 28.3694 9.31077 28.6514 9.15147C28.9219 8.99597 29.2229 8.92012 29.5505 8.92012C29.9963 8.92012 30.3925 9.03011 30.724 9.24629C31.044 9.45489 31.3488 9.7659 31.6231 10.1755L31.2688 11.8671Z" fill="#EE122C"/>
<path d="M52.4289 2.02493C52.4594 1.81254 52.3451 1.62291 52.1203 1.52051C51.9717 1.45224 51.766 1.41051 51.4802 1.38776C51.2288 1.36879 50.8935 1.36121 50.4744 1.36121C50.1049 1.36121 49.8039 1.36879 49.5791 1.38776C49.3467 1.40672 49.16 1.43707 49.0076 1.47499C48.8324 1.52051 48.699 1.58498 48.6076 1.66463C48.5276 1.7329 48.459 1.80875 48.3904 1.89978L42.6527 9.84175L41.4336 6.36381C41.3993 6.24624 41.3536 6.14764 41.2964 6.0642C41.2164 5.95042 41.0869 5.87076 40.9078 5.82904C40.7783 5.7987 40.6068 5.77594 40.3782 5.76077C40.1611 5.7456 39.8677 5.74181 39.4943 5.74181C39.0676 5.74181 38.7171 5.75319 38.458 5.77595C38.1647 5.8025 37.9475 5.8518 37.7913 5.93145C37.5437 6.0604 37.4637 6.24246 37.4408 6.37141C37.4141 6.51932 37.437 6.69379 37.5056 6.90239L39.4562 12.2691L29.4515 25.4981C29.3295 25.6878 29.261 25.8395 29.2419 25.976C29.2114 26.1846 29.3143 26.3667 29.5238 26.4804C29.6648 26.5563 29.8667 26.6056 30.1372 26.6322C30.3811 26.6549 30.7011 26.6663 31.0897 26.6663C31.524 26.6663 31.8745 26.6549 32.1374 26.6397C32.4117 26.6208 32.6251 26.5904 32.7965 26.5525C32.9985 26.507 33.1471 26.4425 33.2499 26.3515C33.3337 26.2794 33.4137 26.1922 33.4709 26.1012L41.7307 14.8975L43.0032 18.5878C43.0261 18.6978 43.068 18.8002 43.129 18.8912C43.2052 19.0088 43.3309 19.096 43.51 19.1491C43.6433 19.1908 43.8262 19.2212 44.0662 19.2401C44.291 19.2591 44.5881 19.2667 44.9768 19.2667C45.392 19.2667 45.7387 19.2553 46.0054 19.2325C46.2988 19.206 46.5236 19.1567 46.6912 19.0846C46.9617 18.9633 47.057 18.7926 47.0912 18.6674C47.1332 18.5195 47.1217 18.3488 47.057 18.1289L44.9501 12.3412L52.1851 2.52558C52.3337 2.32456 52.4099 2.16526 52.4289 2.02493Z" fill="#EE122C"/>
<path d="M68.2361 4.00133C68.3847 4.172 68.6019 4.29336 68.88 4.36163C69.1391 4.42611 69.4629 4.45645 69.8706 4.45645C70.2858 4.45645 70.6249 4.42611 70.903 4.36163C71.1964 4.29715 71.4479 4.18338 71.6498 4.02408C71.8555 3.86479 72.0232 3.6524 72.1451 3.39449C72.2632 3.14796 72.3546 2.84454 72.4232 2.49182C72.488 2.14668 72.5146 1.85085 72.5032 1.60812C72.488 1.34263 72.4041 1.11506 72.2517 0.940595C72.1032 0.766129 71.886 0.640973 71.6079 0.565118C71.3488 0.496849 71.0135 0.462707 70.6173 0.462707C70.2096 0.462707 69.8591 0.496849 69.581 0.565118C69.2915 0.63718 69.04 0.754748 68.8343 0.914043C68.6285 1.07713 68.4647 1.28573 68.3428 1.53984C68.2247 1.78258 68.1333 2.07841 68.0685 2.41976C67.9923 2.77248 67.9618 3.07969 67.9809 3.33001C67.9999 3.60688 68.0875 3.83066 68.2361 4.00133Z" fill="black"/>
<path d="M95.6445 4.00133C95.7931 4.172 96.0102 4.29336 96.2921 4.36163C96.5512 4.42611 96.8751 4.45645 97.2827 4.45645C97.698 4.45645 98.0371 4.42611 98.3152 4.36163C98.6086 4.29715 98.86 4.18338 99.0619 4.02408C99.2677 3.86479 99.4353 3.6524 99.5572 3.39449C99.6753 3.14796 99.7668 2.84454 99.8353 2.49182C99.9001 2.14668 99.9268 1.85085 99.9154 1.60812C99.9001 1.34263 99.8163 1.11506 99.6639 0.940595C99.5153 0.766129 99.2982 0.640973 99.02 0.565118C98.761 0.496849 98.4257 0.462707 98.0257 0.462707C97.618 0.462707 97.2675 0.496849 96.9894 0.565118C96.6998 0.63718 96.4484 0.754748 96.2426 0.914043C96.0369 1.07713 95.8731 1.28952 95.7511 1.53984C95.633 1.78258 95.5416 2.07841 95.4768 2.41976C95.4006 2.77248 95.3702 3.07969 95.3892 3.33001C95.4083 3.60688 95.4959 3.83066 95.6445 4.00133Z" fill="black"/>
<path d="M60.342 1.67259C60.2773 1.55881 60.1592 1.47157 59.9801 1.41089C59.8315 1.36158 59.6372 1.32367 59.401 1.30091C59.1686 1.27815 58.8714 1.26676 58.5209 1.26676C58.1666 1.26676 57.8656 1.27815 57.6256 1.30091C57.3818 1.32367 57.176 1.36158 57.0122 1.41089C56.8293 1.46778 56.6922 1.53985 56.5931 1.63087C56.4826 1.73328 56.4217 1.85464 56.4102 1.97222L53.0309 18.7816C52.989 18.9219 53.0042 19.0584 53.0804 19.176C53.149 19.286 53.2671 19.3695 53.4347 19.4301C53.5795 19.4794 53.77 19.5174 54.01 19.5401C54.2424 19.5629 54.5434 19.5743 54.9053 19.5743C55.2558 19.5743 55.5606 19.5629 55.8045 19.5401C56.0521 19.5174 56.2616 19.4794 56.4255 19.4301C56.6083 19.3733 56.7455 19.3012 56.8408 19.2064C56.9398 19.1078 57.0008 18.994 57.0274 18.8688L60.3954 2.04428C60.422 1.90774 60.403 1.78258 60.342 1.67259Z" fill="black"/>
<path d="M66.6207 0.443754C66.5636 0.329972 66.4531 0.238946 66.2931 0.170677C66.1597 0.113786 65.9769 0.0720678 65.7407 0.041726C65.5159 0.0151769 65.2263 0 64.8834 0C64.5405 0 64.2472 0.0151769 64.011 0.041726C63.7671 0.0720678 63.5728 0.113783 63.4166 0.166881C63.2376 0.227565 63.108 0.307214 63.0204 0.405825C62.9366 0.504436 62.8794 0.614423 62.8566 0.73579L59.2257 18.8119C59.1991 18.9485 59.2181 19.0698 59.2829 19.1798C59.3477 19.286 59.4543 19.3657 59.6144 19.4264C59.7515 19.4794 59.9306 19.5174 60.163 19.5401C60.3878 19.5629 60.6811 19.5743 61.0316 19.5743C61.3631 19.5743 61.6526 19.5629 61.8927 19.5401C62.1327 19.5174 62.3308 19.4795 62.4832 19.4301C62.6508 19.3733 62.7766 19.305 62.8642 19.214C62.9594 19.1191 63.0204 19.0091 63.0471 18.8802L66.6665 0.804056C66.6893 0.675104 66.6779 0.553743 66.6207 0.443754Z" fill="black"/>
<path d="M71.2612 6.28835C71.204 6.17836 71.0935 6.09492 70.9259 6.02665C70.7849 5.96976 70.6021 5.92804 70.3697 5.8977C70.1487 5.86736 69.8591 5.85598 69.5124 5.85598C69.1619 5.85598 68.8762 5.87115 68.64 5.8977C68.4038 5.92425 68.2056 5.96976 68.0494 6.02286C67.878 6.08354 67.7523 6.15561 67.6646 6.24284C67.5694 6.33766 67.5084 6.44764 67.4818 6.57659L65.0396 18.8081C65.013 18.9409 65.0282 19.066 65.0853 19.1685C65.1425 19.2784 65.2568 19.3619 65.4244 19.4264C65.5654 19.4795 65.7483 19.5136 65.9769 19.5401C66.2016 19.5629 66.4874 19.5743 66.8303 19.5743C67.1617 19.5743 67.4513 19.5629 67.6913 19.5401C67.9313 19.5174 68.1333 19.4795 68.2895 19.4302C68.4609 19.3733 68.5904 19.305 68.6781 19.214C68.7733 19.1191 68.8343 19.0092 68.8571 18.8802L71.2993 6.64866C71.3336 6.51591 71.3183 6.39455 71.2612 6.28835Z" fill="black"/>
<path d="M91.4688 6.69418C91.1831 6.35662 90.8059 6.09112 90.3411 5.90149C89.8839 5.71564 89.3162 5.62083 88.6495 5.62083C88.1237 5.62083 87.6056 5.70807 87.1103 5.88632C86.6227 6.06079 86.1578 6.28456 85.7388 6.55763C85.3197 6.83071 84.9387 7.13793 84.6034 7.47548C84.3939 7.68787 84.2034 7.90406 84.0396 8.11645C83.99 7.87751 83.9253 7.64615 83.8376 7.42617C83.6967 7.06586 83.4871 6.74727 83.2166 6.47799C82.9461 6.2087 82.5994 5.99631 82.1841 5.8446C81.7765 5.69668 81.2888 5.62083 80.7326 5.62083C80.1992 5.62083 79.6734 5.70807 79.1743 5.88632C78.679 6.06079 78.2142 6.28456 77.7951 6.55763C77.3761 6.83071 76.9951 7.14171 76.6674 7.48306C76.5607 7.59684 76.4579 7.70682 76.3626 7.82061L76.6026 6.60694C76.6293 6.47799 76.6179 6.36042 76.5684 6.25422C76.515 6.14423 76.416 6.05699 76.2712 6.0001C76.1531 5.9508 76.0007 5.91666 75.8064 5.89011C75.6197 5.86735 75.3759 5.85598 75.0863 5.85598C74.8044 5.85598 74.5605 5.86735 74.3548 5.89011C74.1453 5.91287 73.9738 5.95079 73.8367 5.9963C73.6805 6.04561 73.5624 6.12147 73.4785 6.21629C73.3985 6.30732 73.3452 6.41731 73.3223 6.53867L70.8497 18.8119C70.823 18.9447 70.8383 19.0698 70.8954 19.1722C70.9526 19.2822 71.0669 19.3657 71.2345 19.4302C71.3755 19.4832 71.5584 19.5174 71.7869 19.5439C72.0117 19.5667 72.2975 19.5781 72.6404 19.5781C72.9718 19.5781 73.2614 19.5667 73.5014 19.5439C73.7414 19.5212 73.9433 19.4833 74.0995 19.4339C74.271 19.3771 74.4005 19.3088 74.4882 19.2178C74.5834 19.1229 74.6444 19.013 74.6672 18.884L75.7873 13.3277C75.9016 12.736 76.0997 12.1671 76.3702 11.6361C76.6446 11.1089 76.9608 10.6386 77.3113 10.2442C77.6618 9.85351 78.0314 9.53872 78.4085 9.31116C78.7743 9.09118 79.1286 8.98119 79.4601 8.98119C79.803 8.98119 80.0315 9.08359 80.1611 9.2884C80.3059 9.51976 80.3821 9.82317 80.3821 10.1873C80.3821 10.3921 80.3706 10.6045 80.3478 10.8207C80.3249 11.033 80.2868 11.2454 80.2335 11.4578L78.7705 18.8119C78.7438 18.9485 78.7629 19.0736 78.8276 19.1798C78.8924 19.286 78.9991 19.3657 79.1591 19.4302C79.2924 19.4832 79.4791 19.5212 79.7077 19.5439C79.9325 19.5667 80.2144 19.5781 80.5497 19.5781C80.8926 19.5781 81.1821 19.5667 81.4183 19.5439C81.6546 19.5212 81.8527 19.4833 82.0127 19.4339C82.1918 19.3771 82.3213 19.3088 82.4089 19.2178C82.5042 19.1229 82.5651 19.013 82.5918 18.884L83.7119 13.3315C83.8262 12.736 84.0243 12.1671 84.2948 11.6399C84.5653 11.1127 84.8815 10.6424 85.2359 10.248C85.5864 9.85731 85.9559 9.54251 86.3331 9.31494C86.6988 9.09496 87.0532 8.98498 87.3846 8.98498C87.7351 8.98498 87.9637 9.08738 88.0933 9.29598C88.238 9.53492 88.3104 9.85352 88.3104 10.248C88.3104 10.4452 88.2952 10.6462 88.2685 10.851C88.2419 11.0558 88.2076 11.2606 88.1733 11.4654L86.6989 18.8044C86.6455 18.9826 86.6912 19.1116 86.7369 19.1874C86.8017 19.2936 86.9084 19.3733 87.0684 19.4377C87.2056 19.4908 87.3884 19.5288 87.6247 19.5515C87.8532 19.5743 88.139 19.5857 88.4704 19.5857C88.8133 19.5857 89.1029 19.5743 89.3391 19.5515C89.5753 19.5288 89.7734 19.4908 89.9334 19.4415C90.1125 19.3846 90.242 19.3164 90.3335 19.2253C90.4287 19.1305 90.4897 19.0205 90.5164 18.8916L92.0365 11.3213C92.1089 10.98 92.166 10.6386 92.2041 10.3048C92.2422 9.97488 92.2613 9.64112 92.2613 9.31494C92.2613 8.80672 92.2003 8.32504 92.0746 7.88509C91.9565 7.42617 91.7508 7.03173 91.4688 6.69418Z" fill="black"/>
<path d="M98.3381 6.02665C98.1971 5.96976 98.0104 5.92804 97.7818 5.8977C97.5609 5.86736 97.2713 5.85598 96.9246 5.85598C96.5779 5.85598 96.2845 5.87115 96.0521 5.8977C95.8159 5.92425 95.6178 5.96976 95.4616 6.02286C95.2901 6.08354 95.1644 6.1556 95.0768 6.24663C94.9816 6.34145 94.9206 6.45144 94.8977 6.58039L92.4518 18.8119C92.4251 18.9447 92.4404 19.0661 92.4975 19.1722C92.5546 19.2822 92.6651 19.3657 92.8366 19.4302C92.9737 19.4795 93.1604 19.5212 93.389 19.5439C93.6138 19.5667 93.8995 19.5781 94.2424 19.5781C94.5739 19.5781 94.8634 19.5667 95.1035 19.5439C95.3435 19.5212 95.5454 19.4833 95.7016 19.4339C95.8731 19.3771 96.0026 19.3088 96.0902 19.2178C96.1855 19.1229 96.2464 19.013 96.2731 18.884L98.7152 6.65245C98.7419 6.51971 98.7267 6.39833 98.6695 6.29214C98.6124 6.17836 98.5019 6.09113 98.3381 6.02665Z" fill="black"/>
<path d="M105.817 16.1912C105.722 16.1912 105.619 16.2101 105.516 16.2518C105.436 16.2822 105.337 16.3201 105.223 16.3618C105.116 16.3998 104.99 16.4339 104.842 16.4642C104.697 16.4946 104.522 16.5097 104.312 16.5097C103.984 16.5097 103.748 16.4415 103.611 16.3049C103.474 16.1722 103.405 15.9446 103.405 15.6298C103.405 15.5161 103.417 15.3681 103.439 15.1899C103.462 15.0078 103.485 14.8485 103.512 14.7158L104.643 9.10255H107.188C107.341 9.10255 107.478 9.04187 107.6 8.9205C107.699 8.82189 107.79 8.69672 107.867 8.54501C107.939 8.40468 108.004 8.24539 108.065 8.07092C108.122 7.89646 108.168 7.72579 108.202 7.55512C108.236 7.38445 108.259 7.22895 108.278 7.08482C108.297 6.93691 108.309 6.81174 108.309 6.70934C108.309 6.48557 108.274 6.3149 108.202 6.18215C108.141 6.07216 108.008 5.93563 107.726 5.93563H105.283L105.79 3.41725C105.817 3.28071 105.802 3.15555 105.737 3.04556C105.676 2.93936 105.565 2.84835 105.405 2.78008C105.268 2.72319 105.085 2.68146 104.842 2.65871C104.613 2.63595 104.331 2.62457 103.996 2.62457C103.653 2.62457 103.359 2.63595 103.127 2.65871C102.887 2.68146 102.689 2.72318 102.533 2.77628C102.361 2.83696 102.236 2.91282 102.144 3.00764C102.053 3.10625 101.992 3.21623 101.969 3.34139L101.447 5.93183H100.117C99.9611 5.93183 99.7325 5.99251 99.5382 6.27317C99.4086 6.46281 99.302 6.69037 99.2258 6.94828C99.1496 7.20239 99.0924 7.4603 99.0619 7.7182C99.0276 7.97611 99.0124 8.18851 99.0124 8.35159C99.0124 8.61708 99.0505 8.79154 99.1267 8.90153C99.1877 8.98876 99.3096 9.09496 99.5382 9.09496H100.807L99.6487 14.8523C99.6182 14.9737 99.5953 15.114 99.5686 15.2695L99.5001 15.7171C99.4772 15.8688 99.4582 16.0129 99.4505 16.1532C99.4429 16.2936 99.4353 16.4111 99.4353 16.5173C99.4353 17.0862 99.5115 17.5793 99.6601 17.9813C99.8125 18.3909 100.045 18.7361 100.353 19.0054C100.658 19.2709 101.039 19.4643 101.481 19.5856C101.912 19.7032 102.418 19.7639 102.986 19.7639C103.253 19.7639 103.52 19.7487 103.782 19.7146C104.045 19.6805 104.297 19.635 104.529 19.5819C104.765 19.525 104.971 19.4567 105.146 19.3808C105.329 19.3012 105.474 19.2102 105.573 19.1078C105.672 19.0054 105.764 18.865 105.847 18.6754C105.924 18.5009 105.992 18.3037 106.057 18.0913C106.118 17.8751 106.171 17.6514 106.205 17.4314C106.244 17.2 106.263 16.9914 106.263 16.8094C106.263 16.6121 106.225 16.468 106.152 16.3656C106.042 16.2215 105.908 16.1912 105.817 16.1912Z" fill="black"/>
<path d="M120.82 6.24661C120.763 6.14042 120.66 6.05698 120.512 6.00009C120.39 5.95458 120.23 5.91665 120.032 5.89389C119.841 5.87114 119.601 5.85976 119.319 5.85976C118.732 5.85976 118.317 5.90148 118.039 5.99251C117.639 6.12146 117.517 6.36419 117.483 6.54245L117.342 7.2441C116.942 6.77001 116.485 6.39454 115.982 6.12526C115.368 5.79529 114.656 5.6284 113.867 5.6284C113.025 5.6284 112.259 5.78012 111.589 6.07595C110.922 6.37178 110.324 6.77381 109.81 7.27445C109.299 7.7713 108.853 8.34399 108.488 8.98496C108.126 9.61835 107.821 10.2897 107.588 10.9761C107.356 11.6588 107.181 12.3567 107.07 13.047C106.96 13.7373 106.903 14.382 106.903 14.9661C106.903 15.5919 106.967 16.1987 107.093 16.7638C107.223 17.3441 107.444 17.8675 107.748 18.3189C108.057 18.7778 108.476 19.1457 108.987 19.415C109.501 19.6842 110.145 19.8208 110.907 19.8208C111.459 19.8208 112 19.7298 112.518 19.5477C113.033 19.3695 113.505 19.1419 113.932 18.8688C114.359 18.5957 114.732 18.2885 115.044 17.9548C115.105 17.8865 115.166 17.822 115.223 17.7537L115.01 18.8347C114.983 18.9712 114.995 19.0964 115.044 19.1988C115.098 19.3126 115.204 19.396 115.361 19.4567C115.486 19.5022 115.643 19.5363 115.841 19.5553C116.027 19.5743 116.26 19.5856 116.557 19.5856C117.144 19.5856 117.563 19.5439 117.837 19.4529C118.233 19.3239 118.359 19.085 118.393 18.9029L120.866 6.61451C120.893 6.47418 120.877 6.35281 120.82 6.24661ZM116.313 10.2897L115.94 12.0722C115.814 12.6867 115.612 13.2708 115.342 13.8055C115.067 14.3441 114.751 14.822 114.393 15.224C114.039 15.6222 113.658 15.9446 113.25 16.176C112.858 16.4035 112.469 16.5173 112.099 16.5173C111.848 16.5173 111.646 16.468 111.49 16.3732C111.334 16.2746 111.204 16.1418 111.109 15.975C111.01 15.8043 110.941 15.5995 110.903 15.3757C110.865 15.1368 110.842 14.8827 110.842 14.621C110.842 14.2531 110.873 13.8472 110.93 13.4149C110.987 12.9825 111.078 12.5501 111.2 12.1216C111.322 11.6968 111.475 11.2834 111.661 10.8927C111.844 10.5058 112.054 10.1607 112.294 9.86488C112.526 9.57663 112.797 9.34527 113.098 9.1746C113.391 9.00772 113.719 8.92428 114.069 8.92428C114.545 8.92428 114.972 9.04186 115.33 9.27321C115.688 9.49699 116.016 9.84212 116.313 10.2897Z" fill="black"/>
<path d="M135.778 0.481685C135.721 0.367904 135.61 0.280663 135.454 0.212393C135.317 0.155503 135.138 0.109991 134.902 0.0834421C134.677 0.0531003 134.399 0.0417277 134.044 0.0417277C133.69 0.0417277 133.404 0.0568931 133.172 0.0834421C132.936 0.113784 132.738 0.15551 132.581 0.208609C132.41 0.269292 132.28 0.348938 132.197 0.443756C132.113 0.542367 132.056 0.652354 132.033 0.773721L130.795 6.8876C130.688 6.77761 130.574 6.67141 130.448 6.56901C130.215 6.37937 129.956 6.2087 129.674 6.07216C129.389 5.93183 129.076 5.82184 128.737 5.7422C128.402 5.66255 128.04 5.62083 127.667 5.62083C126.836 5.62083 126.074 5.76874 125.404 6.06078C124.737 6.35282 124.139 6.74727 123.624 7.23653C123.11 7.722 122.668 8.29091 122.302 8.92808C121.94 9.55768 121.636 10.2252 121.399 10.9041C121.163 11.5868 120.984 12.2809 120.874 12.9673C120.763 13.6576 120.706 14.31 120.706 14.913C120.706 15.2771 120.729 15.6526 120.778 16.0281C120.824 16.4073 120.908 16.7828 121.018 17.1393C121.133 17.4959 121.285 17.8448 121.476 18.1672C121.67 18.4933 121.917 18.7854 122.215 19.0281C122.512 19.2709 122.87 19.4643 123.278 19.6008C123.685 19.7412 124.165 19.8094 124.71 19.8094C125.259 19.8094 125.804 19.7222 126.322 19.5439C126.836 19.3695 127.312 19.1419 127.735 18.865C128.162 18.5882 128.535 18.2772 128.848 17.9434C128.912 17.8713 128.973 17.8031 129.034 17.7348L128.829 18.8271C128.802 18.9674 128.813 19.0888 128.863 19.1912C128.916 19.305 129.023 19.3884 129.179 19.4491C129.305 19.4946 129.461 19.5288 129.659 19.5477C129.846 19.5667 130.078 19.5781 130.375 19.5781C130.962 19.5781 131.381 19.5326 131.656 19.4453C132.052 19.3164 132.178 19.0774 132.212 18.8954L135.827 0.84958C135.846 0.716835 135.831 0.595467 135.778 0.481685ZM130.105 10.3048L129.732 12.1026C129.606 12.717 129.404 13.3011 129.133 13.8359C128.863 14.3744 128.543 14.8447 128.185 15.2392C127.834 15.6298 127.449 15.9446 127.042 16.1798C126.649 16.4073 126.261 16.5211 125.891 16.5211C125.457 16.5211 125.148 16.3732 124.954 16.0736C124.744 15.7512 124.638 15.2544 124.638 14.5982C124.638 14.2152 124.668 13.8017 124.733 13.3732C124.794 12.9446 124.889 12.5084 125.011 12.076C125.133 11.6475 125.285 11.2341 125.468 10.8472C125.651 10.4641 125.865 10.1266 126.105 9.84213C126.345 9.56147 126.615 9.33391 126.912 9.16703C127.202 9.00394 127.522 8.9205 127.865 8.9205C128.341 8.9205 128.764 9.04187 129.126 9.27702C129.48 9.50838 129.808 9.85351 130.105 10.3048Z" fill="black"/>
<path d="M148.141 10.7069C148.141 9.90281 148.027 9.17461 147.798 8.54881C147.569 7.91542 147.211 7.37306 146.743 6.9369C146.274 6.50453 145.684 6.17077 144.983 5.947C144.293 5.72702 143.462 5.61702 142.518 5.61702C141.554 5.61702 140.674 5.74977 139.904 6.01147C139.134 6.27317 138.441 6.63348 137.843 7.08482C137.245 7.53236 136.727 8.06713 136.3 8.67018C135.873 9.26943 135.523 9.9142 135.252 10.5817C134.982 11.2492 134.78 11.9433 134.654 12.6525C134.528 13.3542 134.463 14.052 134.463 14.7196C134.463 15.5274 134.578 16.2518 134.806 16.8776C135.035 17.511 135.389 18.0534 135.862 18.4895C136.33 18.9219 136.921 19.2557 137.622 19.4794C138.311 19.6994 139.142 19.8094 140.087 19.8094C141.051 19.8094 141.927 19.6767 142.7 19.415C143.47 19.1533 144.163 18.7892 144.762 18.334C145.36 17.8789 145.878 17.3479 146.305 16.7563C146.731 16.1646 147.082 15.5236 147.356 14.8485C147.627 14.1734 147.829 13.4756 147.954 12.7701C148.08 12.0723 148.141 11.3744 148.141 10.7069ZM144.19 10.942C144.19 11.3403 144.16 11.765 144.095 12.2088C144.034 12.6449 143.931 13.0887 143.798 13.5211C143.664 13.9534 143.493 14.3669 143.287 14.7537C143.085 15.1368 142.841 15.4781 142.563 15.7739C142.289 16.0622 141.977 16.2973 141.63 16.4642C141.287 16.6311 140.898 16.7145 140.468 16.7145C140.087 16.7145 139.763 16.6652 139.504 16.5628C139.249 16.4642 139.047 16.3239 138.883 16.1381C138.723 15.9522 138.605 15.7209 138.536 15.4478C138.464 15.1633 138.426 14.8334 138.426 14.4617C138.426 14.0558 138.456 13.6273 138.521 13.1873C138.582 12.7436 138.685 12.3036 138.818 11.875C138.951 11.4502 139.123 11.0368 139.329 10.6462C139.531 10.2669 139.774 9.92557 140.053 9.63353C140.327 9.34908 140.639 9.11771 140.99 8.95084C141.333 8.78395 141.721 8.70051 142.152 8.70051C142.533 8.70051 142.857 8.74982 143.116 8.85222C143.367 8.95083 143.577 9.09496 143.737 9.27701C143.897 9.46286 144.015 9.69042 144.083 9.9597C144.152 10.2442 144.19 10.5741 144.19 10.942Z" fill="black"/>
</svg>
